<svg width="55" height="55" viewBox="0 0 55 55" fill="none" xmlns="http://www.w3.org/2000/svg">
<g clip-path="url(#clip0_7_1726)">
<path d="M43.3585 24.383C43.6641 24.0503 43.8265 23.6107 43.8104 23.1592C43.7944 22.7078 43.6013 22.2808 43.2728 21.9706C42.9444 21.6605 42.507 21.4921 42.0553 21.5019C41.6037 21.5118 41.1741 21.699 40.8595 22.0232L27.4996 36.1685L14.1398 22.0232C13.8251 21.699 13.3955 21.5118 12.9439 21.5019C12.4922 21.4921 12.0549 21.6605 11.7264 21.9706C11.398 22.2808 11.2048 22.7078 11.1888 23.1592C11.1727 23.6107 11.3351 24.0503 11.6407 24.383L26.2501 39.8518C26.4108 40.0218 26.6045 40.1572 26.8194 40.2497C27.0342 40.3423 27.2657 40.39 27.4996 40.39C27.7335 40.39 27.965 40.3423 28.1799 40.2497C28.3947 40.1572 28.5884 40.0218 28.7491 39.8518L43.3585 24.383Z" fill="white"/>
<path d="M55 27.5C55 20.1549 52.1391 13.249 46.9451 8.05578C41.751 2.86086 34.8451 0 27.5 0C20.1549 0 13.249 2.86172 8.05578 8.05578C2.86086 13.249 0 20.1549 0 27.5C0 34.8451 2.86086 41.751 8.05492 46.9442C13.249 52.1391 20.1549 55 27.5 55C34.8451 55 41.751 52.1383 46.9442 46.9442C52.1391 41.751 55 34.8451 55 27.5ZM10.4861 44.513C5.94086 39.9687 3.4375 33.9273 3.4375 27.5C3.4375 21.0727 5.94086 15.0313 10.4861 10.4861C15.0305 5.94086 21.0727 3.4375 27.5 3.4375C33.9273 3.4375 39.9695 5.94086 44.5139 10.487C49.0591 15.0313 51.5625 21.0727 51.5625 27.5C51.5625 33.9273 49.0591 39.9687 44.5139 44.5139C39.9695 49.0591 33.9273 51.5625 27.5 51.5625C21.0727 51.5625 15.0305 49.0591 10.4861 44.513Z" fill="white"/>
</g>
<defs>
<clipPath id="clip0_7_1726">
<rect width="55" height="55" fill="white" transform="translate(55) rotate(90)"/>
</clipPath>
</defs>
</svg>
