<svg width="51" height="82" viewBox="0 0 51 82" fill="none" xmlns="http://www.w3.org/2000/svg">
<path d="M1.66119 44.5978C1.72239 44.649 1.80399 44.6695 1.86519 44.7207L41.2077 80.501C43.4212 82.4996 47.0117 82.4996 49.2252 80.501C49.2456 80.4805 49.2557 80.46 49.2659 80.4395C49.8019 79.9949 50.2348 79.438 50.5343 78.8077C50.8338 78.1775 50.9928 77.4892 51 76.7908L51 5.21997C50.9886 4.50879 50.8219 3.80881 50.5116 3.16948C50.2014 2.53014 49.7553 1.96705 49.2047 1.51997L49.2252 1.49948C48.1114 0.532249 46.6885 0 45.2164 0C43.7444 0 42.3214 0.532249 41.2077 1.49948L1.66119 37.3618C1.14035 37.8082 0.722115 38.3629 0.435318 38.9875C0.148521 39.6122 0 40.2919 0 40.9798C0 41.6677 0.148521 42.3474 0.435318 42.972C0.722115 43.5966 1.14035 44.1513 1.66119 44.5978Z" fill="#D21E2B"/>
</svg>
