<svg width="51" height="82" viewBox="0 0 51 82" fill="none" xmlns="http://www.w3.org/2000/svg">
<path d="M49.3388 37.4022C49.2776 37.351 49.196 37.3305 49.1348 37.2793L9.79228 1.49896C7.57882 -0.499649 3.98831 -0.499649 1.77485 1.49896C1.75445 1.51946 1.74425 1.53996 1.73405 1.56046C1.19808 2.00512 0.765211 2.56203 0.465697 3.19226C0.166183 3.82249 0.00724928 4.51084 0 5.2092L0 76.78C0.0114367 77.4912 0.178145 78.1912 0.488353 78.8305C0.79856 79.4699 1.2447 80.033 1.79525 80.48L1.77485 80.5005C2.88858 81.4678 4.31149 82 5.78356 82C7.25563 82 8.67855 81.4678 9.79228 80.5005L49.3388 44.6382C49.8596 44.1918 50.2779 43.6371 50.5647 43.0125C50.8515 42.3878 51 41.7081 51 41.0202C51 40.3323 50.8515 39.6526 50.5647 39.028C50.2779 38.4034 49.8596 37.8487 49.3388 37.4022Z" fill="#D21E2B"/>
</svg>
